{
copyright = "Copyright \U00A9 2012 by Douglas Waltman II. All rights reserved.";
customParameters = (
{
name = glyphOrder;
value = (
    ""
);}
);
date = "2012-09-03 23:02:08 +0000";
designer = "Douglas Waltman II";
designerURL = "http://dougwaltman.com";
familyName = "Picara";
fontMaster = (
{
ascender = 500;
capHeight = 500;
customParameters = (
{
name = TypoAscender;
value = 500;
},
{
name = TypoDescender;
value = 0;
}
);
descender = 0;
id = "A7B0D76B-7820-46BB-8C83-FA5FED62DDC8";
weightValue = 500;
widthValue = 5;
xHeight = 500;
}
);
glyphs = (
{
glyphname = uniF000;
lastChange = "2012-09-06 12:05:59 -0700";
layers = (
{
layerId = "A7B0D76B-7820-46BB-8C83-FA5FED62DDC8";
name = Regular;
paths = (
{
closed = 1;
nodes = (
"103 137 LINE",
"187 53 LINE",
"500 364 LINE",
"415 448 LINE"
);
},
{
closed = 1;
nodes = (
"0 237 LINE",
"187 53 LINE",
"271 137 LINE",
"84 321 LINE"
);
}
);
width = 500;
}
);
unicode = F000;
},
{
glyphname = uniF001;
lastChange = "2012-09-06 12:18:32 -0700";
layers = (
{
layerId = "A7B0D76B-7820-46BB-8C83-FA5FED62DDC8";
name = Regular;
paths = (
{
closed = 1;
nodes = (
"386 35 LINE",
"31 387 LINE",
"114 472 LINE",
"469 118 LINE"
);
},
{
closed = 1;
nodes = (
"385 472 LINE",
"470 387 LINE",
"115 28 LINE",
"30 115 LINE"
);
}
);
width = 500;
}
);
unicode = F001;
},
{
glyphname = uniF002;
lastChange = "2012-09-06 12:07:24 -0700";
layers = (
{
layerId = "A7B0D76B-7820-46BB-8C83-FA5FED62DDC8";
name = Regular;
paths = (
{
closed = 1;
nodes = (
"480 190 LINE",
"20 190 LINE",
"20 313 LINE",
"480 313 LINE"
);
},
{
closed = 1;
nodes = (
"189 20 LINE",
"189 480 LINE",
"312 480 LINE",
"312 20 LINE"
);
}
);
width = 500;
}
);
unicode = F002;
},
{
glyphname = uniF003;
lastChange = "2012-09-06 12:19:30 -0700";
layers = (
{
layerId = "A7B0D76B-7820-46BB-8C83-FA5FED62DDC8";
name = Regular;
paths = (
{
closed = 1;
nodes = (
"16 134 OFFCURVE",
"-12 357 OFFCURVE",
"231 357 CURVE SMOOTH",
"332 357 LINE",
"332 429 LINE",
"488 277 LINE",
"332 112 LINE",
"332 196 LINE",
"231 196 LINE SMOOTH",
"131 196 OFFCURVE",
"16 184 OFFCURVE",
"16 11 CURVE"
);
}
);
width = 500;
}
);
unicode = F003;
},
{
glyphname = uniF004;
lastChange = "2012-09-06 11:31:17 -0700";
layers = (
{
layerId = "A7B0D76B-7820-46BB-8C83-FA5FED62DDC8";
name = Regular;
paths = (
{
closed = 1;
nodes = (
"481 134 OFFCURVE",
"510 358 OFFCURVE",
"267 358 CURVE SMOOTH",
"166 358 LINE",
"166 429 LINE",
"10 278 LINE",
"166 112 LINE",
"166 196 LINE",
"267 196 LINE SMOOTH",
"366 196 OFFCURVE",
"481 185 OFFCURVE",
"481 12 CURVE"
);
}
);
width = 500;
}
);
unicode = F004;
},
{
glyphname = uniF005;
lastChange = "2012-09-06 13:30:18 -0700";
layers = (
{
layerId = "A7B0D76B-7820-46BB-8C83-FA5FED62DDC8";
name = Regular;
paths = (
{
closed = 1;
nodes = (
"131 469 OFFCURVE",
"32 370 OFFCURVE",
"32 255 CURVE SMOOTH",
"32 129 OFFCURVE",
"131 31 OFFCURVE",
"257 31 CURVE SMOOTH",
"370 31 OFFCURVE",
"468 129 OFFCURVE",
"468 255 CURVE SMOOTH",
"468 370 OFFCURVE",
"370 469 OFFCURVE",
"257 469 CURVE"
);
},
{
closed = 1;
nodes = (
"137 389 OFFCURVE",
"183 430 OFFCURVE",
"248 430 CURVE SMOOTH",
"319 430 OFFCURVE",
"364 394 OFFCURVE",
"364 331 CURVE SMOOTH",
"364 291 OFFCURVE",
"333 271 OFFCURVE",
"317 261 CURVE SMOOTH",
"303 252 OFFCURVE",
"280 242 OFFCURVE",
"280 211 CURVE",
"280 197 OFFCURVE",
"228 197 OFFCURVE",
"228 211 CURVE",
"228 242 OFFCURVE",
"220 256 OFFCURVE",
"280 298 CURVE",
"307 317 OFFCURVE",
"290 369 OFFCURVE",
"253 369 CURVE SMOOTH",
"208 369 OFFCURVE",
"206 327 OFFCURVE",
"206 327 CURVE SMOOTH",
"206 291 OFFCURVE",
"137 291 OFFCURVE",
"137 327 CURVE"
);
},
{
closed = 1;
nodes = (
"282 173 OFFCURVE",
"298 155 OFFCURVE",
"298 130 CURVE SMOOTH",
"298 105 OFFCURVE",
"282 88 OFFCURVE",
"255 88 CURVE SMOOTH",
"228 88 OFFCURVE",
"213 105 OFFCURVE",
"213 130 CURVE SMOOTH",
"213 155 OFFCURVE",
"228 173 OFFCURVE",
"255 173 CURVE"
);
}
);
width = 500;
}
);
unicode = F005;
},
{
glyphname = uniF006;
lastChange = "2012-09-06 13:34:30 -0700";
layers = (
{
layerId = "A7B0D76B-7820-46BB-8C83-FA5FED62DDC8";
name = Regular;
paths = (
{
closed = 1;
nodes = (
"273 475 LINE SMOOTH",
"261 492 OFFCURVE",
"237 492 OFFCURVE",
"225 475 CURVE SMOOTH",
"21 277 LINE SMOOTH",
"10 259 OFFCURVE",
"10 234 OFFCURVE",
"21 224 CURVE SMOOTH",
"225 19 LINE SMOOTH",
"237 8 OFFCURVE",
"261 8 OFFCURVE",
"273 19 CURVE SMOOTH",
"477 224 LINE SMOOTH",
"490 234 OFFCURVE",
"490 259 OFFCURVE",
"477 277 CURVE"
);
},
{
closed = 1;
nodes = (
"275 174 OFFCURVE",
"295 156 OFFCURVE",
"295 130 CURVE SMOOTH",
"295 104 OFFCURVE",
"275 86 OFFCURVE",
"250 86 CURVE SMOOTH",
"223 86 OFFCURVE",
"205 104 OFFCURVE",
"205 130 CURVE SMOOTH",
"205 156 OFFCURVE",
"223 174 OFFCURVE",
"250 174 CURVE"
);
},
{
closed = 1;
nodes = (
"300 414 OFFCURVE",
"300 383 OFFCURVE",
"300 333 CURVE",
"300 290 OFFCURVE",
"280 202 OFFCURVE",
"250 202 CURVE SMOOTH",
"220 202 OFFCURVE",
"200 290 OFFCURVE",
"200 333 CURVE",
"200 380 OFFCURVE",
"200 414 OFFCURVE",
"250 414 CURVE"
);
}
);
width = 500;
}
);
unicode = F006;
},
{
glyphname = uniF007;
lastChange = "2012-09-06 13:36:18 -0700";
layers = (
{
layerId = "A7B0D76B-7820-46BB-8C83-FA5FED62DDC8";
name = Regular;
paths = (
{
closed = 1;
nodes = (
"415 499 OFFCURVE",
"399 493 OFFCURVE",
"387 483 CURVE SMOOTH",
"377 475 OFFCURVE",
"362 462 OFFCURVE",
"362 462 CURVE",
"464 359 LINE",
"464 359 OFFCURVE",
"480 375 OFFCURVE",
"490 385 CURVE SMOOTH",
"490 385 OFFCURVE",
"507 411 OFFCURVE",
"465 455 CURVE"
);
},
{
closed = 1;
nodes = (
"7 16 LINE",
"162 50 LINE",
"59 152 LINE"
);
},
{
closed = 1;
nodes = (
"85 181 LINE",
"188 79 LINE",
"404 299 LINE",
"302 401 LINE"
);
},
{
closed = 1;
nodes = (
"316 416 LINE",
"419 314 LINE",
"439 334 LINE",
"337 436 LINE"
);
}
);
width = 500;
}
);
unicode = F007;
},
{
glyphname = uniF008;
lastChange = "2012-09-06 12:20:06 -0700";
layers = (
{
layerId = "A7B0D76B-7820-46BB-8C83-FA5FED62DDC8";
name = Regular;
paths = (
{
closed = 1;
nodes = (
"26 203 LINE",
"474 203 LINE",
"474 297 LINE",
"26 297 LINE"
);
},
{
closed = 1;
nodes = (
"26 60 LINE",
"474 60 LINE",
"474 155 LINE",
"26 155 LINE"
);
},
{
closed = 1;
nodes = (
"26 346 LINE",
"474 346 LINE",
"474 440 LINE",
"26 440 LINE"
);
}
);
width = 500;
}
);
unicode = F008;
},
{
glyphname = uniF009;
lastChange = "2012-09-06 12:20:23 -0700";
layers = (
{
layerId = "A7B0D76B-7820-46BB-8C83-FA5FED62DDC8";
name = Regular;
paths = (
{
closed = 1;
nodes = (
"50 281 LINE",
"219 281 LINE",
"219 451 LINE",
"50 451 LINE"
);
},
{
closed = 1;
nodes = (
"280 281 LINE",
"450 281 LINE",
"450 451 LINE",
"280 451 LINE"
);
},
{
closed = 1;
nodes = (
"50 49 LINE",
"219 49 LINE",
"219 218 LINE",
"50 218 LINE"
);
},
{
closed = 1;
nodes = (
"280 49 LINE",
"450 49 LINE",
"450 218 LINE",
"280 218 LINE"
);
}
);
width = 500;
}
);
unicode = F009;
},
{
glyphname = uniF00A;
lastChange = "2012-09-10 15:37:38 -0700";
layers = (
{
layerId = "A7B0D76B-7820-46BB-8C83-FA5FED62DDC8";
name = Regular;
paths = (
{
closed = 1;
nodes = (
"129 468 OFFCURVE",
"32 369 OFFCURVE",
"32 249 CURVE SMOOTH",
"32 129 OFFCURVE",
"129 32 OFFCURVE",
"249 32 CURVE SMOOTH",
"369 32 OFFCURVE",
"468 129 OFFCURVE",
"468 249 CURVE SMOOTH",
"468 369 OFFCURVE",
"369 468 OFFCURVE",
"249 468 CURVE"
);
},
{
closed = 1;
nodes = (
"179 121 OFFCURVE",
"377 320 OFFCURVE",
"377 320 CURVE SMOOTH",
"388 299 OFFCURVE",
"396 274 OFFCURVE",
"396 249 CURVE SMOOTH",
"396 167 OFFCURVE",
"330 103 OFFCURVE",
"249 103 CURVE SMOOTH",
"224 103 OFFCURVE",
"200 109 OFFCURVE",
"179 121 CURVE SMOOTH"
);
},
{
closed = 1;
nodes = (
"320 378 OFFCURVE",
"121 179 OFFCURVE",
"121 179 CURVE SMOOTH",
"111 200 OFFCURVE",
"103 225 OFFCURVE",
"103 250 CURVE SMOOTH",
"103 332 OFFCURVE",
"169 396 OFFCURVE",
"250 395 CURVE SMOOTH",
"275 395 OFFCURVE",
"299 390 OFFCURVE",
"320 378 CURVE SMOOTH"
);
}
);
width = 500;
}
);
unicode = F00A;
},
{
glyphname = uniF00B;
lastChange = "2012-09-10 11:13:20 -0700";
layers = (
{
layerId = "A7B0D76B-7820-46BB-8C83-FA5FED62DDC8";
name = Regular;
paths = (
{
closed = 1;
nodes = (
"115 183 LINE",
"50 249 LINE",
"50 50 LINE",
"249 50 LINE SMOOTH",
"184 115 LINE",
"260 193 LINE",
"193 261 LINE"
);
},
{
closed = 1;
nodes = (
"385 317 LINE",
"450 251 LINE",
"450 450 LINE",
"251 450 LINE SMOOTH",
"316 385 LINE",
"240 306 LINE",
"307 238 LINE"
);
}
);
width = 500;
}
);
unicode = F00B;
},
{
glyphname = uniF00C;
lastChange = "2012-09-10 11:14:05 -0700";
layers = (
{
layerId = "A7B0D76B-7820-46BB-8C83-FA5FED62DDC8";
name = Regular;
paths = (
{
closed = 1;
nodes = (
"183 385 LINE",
"249 450 LINE",
"50 450 LINE",
"50 251 LINE SMOOTH",
"115 316 LINE",
"193 240 LINE",
"261 307 LINE"
);
},
{
closed = 1;
nodes = (
"317 115 LINE",
"251 50 LINE",
"450 50 LINE",
"450 249 LINE SMOOTH",
"385 184 LINE",
"306 260 LINE",
"238 193 LINE"
);
}
);
width = 500;
}
);
unicode = F00C;
},
{
glyphname = uniF00D;
lastChange = "2012-09-10 11:12:47 -0700";
layers = (
{
layerId = "A7B0D76B-7820-46BB-8C83-FA5FED62DDC8";
name = Regular;
paths = (
{
closed = 1;
nodes = (
"102 157 LINE",
"50 209 LINE",
"50 50 LINE",
"209 50 LINE SMOOTH",
"158 102 LINE",
"218 164 LINE",
"164 219 LINE"
);
},
{
closed = 1;
nodes = (
"399 343 LINE",
"450 291 LINE",
"450 450 LINE",
"291 450 LINE SMOOTH",
"342 399 LINE",
"282 335 LINE",
"336 280 LINE"
);
},
{
closed = 1;
nodes = (
"157 399 LINE",
"209 450 LINE",
"50 450 LINE",
"50 291 LINE SMOOTH",
"102 342 LINE",
"164 282 LINE",
"219 336 LINE"
);
},
{
closed = 1;
nodes = (
"343 102 LINE",
"291 50 LINE",
"450 51 LINE",
"450 210 LINE SMOOTH",
"399 158 LINE",
"335 218 LINE",
"280 164 LINE"
);
}
);
width = 500;
}
);
unicode = F00D;
},
{
glyphname = uniF00E;
lastChange = "2012-09-10 11:45:18 -0700";
layers = (
{
layerId = "A7B0D76B-7820-46BB-8C83-FA5FED62DDC8";
name = Regular;
paths = (
{
closed = 1;
nodes = (
"221 70 LINE",
"180 70 OFFCURVE",
"133 83 OFFCURVE",
"113 104 CURVE",
"145 187 LINE",
"188 146 OFFCURVE",
"293 135 OFFCURVE",
"293 181 CURVE SMOOTH",
"293 236 OFFCURVE",
"118 202 OFFCURVE",
"118 314 CURVE SMOOTH",
"118 372 OFFCURVE",
"159 414 OFFCURVE",
"227 414 CURVE",
"227 490 LINE",
"308 490 LINE",
"308 414 LINE",
"330 414 OFFCURVE",
"367 399 OFFCURVE",
"384 386 CURVE",
"350 320 LINE",
"296 360 OFFCURVE",
"208 359 OFFCURVE",
"208 311 CURVE SMOOTH",
"208 263 OFFCURVE",
"387 306 OFFCURVE",
"387 182 CURVE SMOOTH",
"387 127 OFFCURVE",
"356 87 OFFCURVE",
"300 75 CURVE",
"300 10 LINE",
"221 10 LINE"
);
}
);
width = 500;
}
);
unicode = F00E;
},
{
glyphname = uniF100;
lastChange = "2012-09-06 13:27:26 -0700";
layers = (
{
layerId = "A7B0D76B-7820-46BB-8C83-FA5FED62DDC8";
name = Regular;
paths = (
{
closed = 1;
nodes = (
"0 426 LINE",
"20 426 LINE",
"250 260 LINE",
"480 426 LINE",
"500 426 LINE",
"500 406 LINE SMOOTH",
"352 270 LINE",
"500 95 LINE",
"500 75 LINE SMOOTH",
"480 75 LINE",
"325 253 LINE",
"250 190 LINE",
"175 253 LINE",
"20 75 LINE",
"0 75 LINE",
"0 95 LINE SMOOTH",
"148 270 LINE",
"0 406 LINE"
);
},
{
closed = 1;
nodes = (
"0 75 LINE",
"500 75 LINE",
"500 426 LINE",
"0 426 LINE"
);
}
);
width = 500;
}
);
unicode = F100;
},
{
glyphname = uniF101;
lastChange = "2012-09-06 13:40:41 -0700";
layers = (
{
layerId = "A7B0D76B-7820-46BB-8C83-FA5FED62DDC8";
name = Regular;
paths = (
{
closed = 1;
nodes = (
"0 231 OFFCURVE",
"0 139 OFFCURVE",
"0 113 CURVE SMOOTH",
"0 80 OFFCURVE",
"27 55 OFFCURVE",
"52 55 CURVE SMOOTH",
"136 55 OFFCURVE",
"347 55 OFFCURVE",
"448 55 CURVE SMOOTH",
"472 55 OFFCURVE",
"500 80 OFFCURVE",
"500 113 CURVE SMOOTH",
"500 164 OFFCURVE",
"500 231 OFFCURVE",
"500 231 CURVE SMOOTH",
"360 231 LINE SMOOTH",
"300 166 LINE",
"200 166 LINE",
"140 231 LINE",
"0 231 LINE"
);
},
{
closed = 1;
nodes = (
"86 435 LINE",
"0 260 LINE SMOOTH",
"50 260 LINE SMOOTH",
"100 370 LINE",
"400 370 LINE",
"450 260 LINE SMOOTH",
"500 260 LINE SMOOTH",
"422 435 LINE"
);
}
);
width = 500;
}
);
unicode = F101;
},
{
glyphname = uniF102;
lastChange = "2012-09-06 13:43:29 -0700";
layers = (
{
layerId = "A7B0D76B-7820-46BB-8C83-FA5FED62DDC8";
name = Regular;
paths = (
{
closed = 1;
nodes = (
"126 71 LINE",
"212 154 LINE",
"325 40 LINE SMOOTH",
"500 463 LINE",
"0 290 LINE SMOOTH",
"126 238 LINE"
);
},
{
closed = 1;
nodes = (
"441 425 LINE",
"456 434 OFFCURVE",
"465 425 OFFCURVE",
"457 418 CURVE SMOOTH",
"154 127 LINE",
"154 243 LINE"
);
}
);
width = 500;
}
);
unicode = F102;
},
{
glyphname = uniF103;
lastChange = "2012-09-06 12:11:41 -0700";
layers = (
{
layerId = "A7B0D76B-7820-46BB-8C83-FA5FED62DDC8";
name = Regular;
paths = (
{
closed = 1;
nodes = (
"59 482 OFFCURVE",
"45 418 OFFCURVE",
"45 418 CURVE",
"117 59 LINE",
"117 59 OFFCURVE",
"124 14 OFFCURVE",
"250 14 CURVE SMOOTH",
"376 14 OFFCURVE",
"383 59 OFFCURVE",
"383 59 CURVE",
"456 418 LINE",
"456 418 OFFCURVE",
"437 482 OFFCURVE",
"248 482 CURVE"
);
},
{
closed = 1;
nodes = (
"338 445 OFFCURVE",
"407 425 OFFCURVE",
"405 401 CURVE SMOOTH",
"403 378 OFFCURVE",
"334 359 OFFCURVE",
"251 359 CURVE SMOOTH",
"168 359 OFFCURVE",
"99 378 OFFCURVE",
"97 401 CURVE SMOOTH",
"95 425 OFFCURVE",
"164 445 OFFCURVE",
"251 445 CURVE"
);
},
{
closed = 1;
nodes = (
"266 312 LINE",
"266 42 LINE",
"236 42 LINE",
"236 312 LINE"
);
},
{
closed = 1;
nodes = (
"366 325 LINE",
"331 60 LINE",
"301 48 LINE",
"334 319 LINE"
);
},
{
closed = 1;
nodes = (
"200 48 LINE",
"170 54 LINE",
"136 325 LINE",
"168 319 LINE"
);
}
);
width = 500;
}
);
unicode = F103;
},
{
glyphname = uniF104;
lastChange = "2012-09-06 13:44:18 -0700";
layers = (
{
layerId = "A7B0D76B-7820-46BB-8C83-FA5FED62DDC8";
name = Regular;
paths = (
{
closed = 1;
nodes = (
"27 389 LINE SMOOTH",
"18 389 OFFCURVE",
"10 380 OFFCURVE",
"10 371 CURVE SMOOTH",
"10 95 LINE SMOOTH",
"10 76 OFFCURVE",
"22 59 OFFCURVE",
"45 59 CURVE SMOOTH",
"45 59 OFFCURVE",
"102 59 OFFCURVE",
"102 59 CURVE SMOOTH",
"102 59 OFFCURVE",
"102 90 OFFCURVE",
"102 90 CURVE SMOOTH",
"102 90 OFFCURVE",
"83 90 OFFCURVE",
"56 90 CURVE SMOOTH",
"48 90 OFFCURVE",
"39 97 OFFCURVE",
"39 108 CURVE SMOOTH",
"39 108 OFFCURVE",
"39 342 OFFCURVE",
"39 342 CURVE SMOOTH",
"39 355 OFFCURVE",
"44 360 OFFCURVE",
"56 360 CURVE SMOOTH",
"431 360 LINE",
"431 371 LINE",
"431 380 OFFCURVE",
"424 389 OFFCURVE",
"415 389 CURVE"
);
},
{
closed = 1;
nodes = (
"78 442 LINE SMOOTH",
"67 442 OFFCURVE",
"61 436 OFFCURVE",
"61 427 CURVE SMOOTH",
"61 389 LINE",
"243 389 LINE",
"243 427 LINE SMOOTH",
"243 436 OFFCURVE",
"237 442 OFFCURVE",
"227 442 CURVE"
);
},
{
closed = 1;
nodes = (
"100 321 LINE SMOOTH",
"91 321 OFFCURVE",
"84 314 OFFCURVE",
"84 305 CURVE SMOOTH",
"84 75 LINE SMOOTH",
"84 66 OFFCURVE",
"93 59 OFFCURVE",
"102 59 CURVE SMOOTH",
"475 59 LINE SMOOTH",
"484 59 OFFCURVE",
"490 66 OFFCURVE",
"490 75 CURVE SMOOTH",
"490 305 LINE SMOOTH",
"490 314 OFFCURVE",
"484 321 OFFCURVE",
"475 321 CURVE"
);
}
);
width = 500;
}
);
unicode = F104;
},
{
glyphname = uniF105;
lastChange = "2012-09-06 13:51:48 -0700";
layers = (
{
layerId = "A7B0D76B-7820-46BB-8C83-FA5FED62DDC8";
name = Regular;
paths = (
{
closed = 1;
nodes = (
"220 315 OFFCURVE",
"333 483 OFFCURVE",
"333 483 CURVE SMOOTH",
"333 483 OFFCURVE",
"133 324 OFFCURVE",
"261 189 CURVE",
"300 153 OFFCURVE",
"201 78 OFFCURVE",
"165 150 CURVE SMOOTH",
"149 182 OFFCURVE",
"242 256 OFFCURVE",
"79 373 CURVE",
"140 287 OFFCURVE",
"111 240 OFFCURVE",
"93 195 CURVE SMOOTH",
"65 116 OFFCURVE",
"93 54 OFFCURVE",
"250 6 CURVE",
"422 34 OFFCURVE",
"504 159 OFFCURVE",
"356 240 CURVE"
);
},
{
closed = 1;
nodes = (
"171 438 OFFCURVE",
"144 404 OFFCURVE",
"165 330 CURVE",
"283 430 OFFCURVE",
"124 498 OFFCURVE",
"124 498 CURVE"
);
},
{
closed = 1;
nodes = (
"376 427 OFFCURVE",
"346 421 OFFCURVE",
"342 382 CURVE SMOOTH",
"335 344 OFFCURVE",
"336 301 OFFCURVE",
"386 263 CURVE",
"381 273 OFFCURVE",
"380 284 OFFCURVE",
"378 297 CURVE SMOOTH",
"366 344 OFFCURVE",
"381 401 OFFCURVE",
"402 453 CURVE"
);
}
);
width = 500;
}
);
unicode = F105;
},
{
glyphname = uniF106;
lastChange = "2012-09-06 13:46:41 -0700";
layers = (
{
layerId = "A7B0D76B-7820-46BB-8C83-FA5FED62DDC8";
name = Regular;
paths = (
{
closed = 1;
nodes = (
"135 429 OFFCURVE",
"40 284 OFFCURVE",
"40 284 CURVE SMOOTH",
"40 284 OFFCURVE",
"135 388 OFFCURVE",
"251 388 CURVE SMOOTH",
"366 388 OFFCURVE",
"460 284 OFFCURVE",
"460 284 CURVE SMOOTH",
"460 284 OFFCURVE",
"366 429 OFFCURVE",
"251 429 CURVE"
);
},
{
closed = 1;
nodes = (
"135 348 OFFCURVE",
"40 212 OFFCURVE",
"40 212 CURVE SMOOTH",
"40 212 OFFCURVE",
"135 76 OFFCURVE",
"251 76 CURVE SMOOTH",
"366 76 OFFCURVE",
"460 212 OFFCURVE",
"460 212 CURVE SMOOTH",
"460 212 OFFCURVE",
"366 348 OFFCURVE",
"251 348 CURVE"
);
},
{
closed = 1;
nodes = (
"307 323 OFFCURVE",
"361 268 OFFCURVE",
"361 211 CURVE SMOOTH",
"361 152 OFFCURVE",
"307 100 OFFCURVE",
"251 100 CURVE SMOOTH",
"194 100 OFFCURVE",
"139 152 OFFCURVE",
"139 211 CURVE SMOOTH",
"139 268 OFFCURVE",
"194 323 OFFCURVE",
"251 323 CURVE"
);
},
{
closed = 1;
nodes = (
"219 271 OFFCURVE",
"190 243 OFFCURVE",
"190 212 CURVE SMOOTH",
"190 178 OFFCURVE",
"219 154 OFFCURVE",
"251 154 CURVE SMOOTH",
"282 154 OFFCURVE",
"309 178 OFFCURVE",
"309 212 CURVE SMOOTH",
"309 243 OFFCURVE",
"282 271 OFFCURVE",
"251 271 CURVE"
);
},
{
closed = 1;
nodes = (
"249 259 OFFCURVE",
"265 246 OFFCURVE",
"265 227 CURVE SMOOTH",
"265 209 OFFCURVE",
"249 196 OFFCURVE",
"231 196 CURVE SMOOTH",
"215 196 OFFCURVE",
"200 209 OFFCURVE",
"200 227 CURVE SMOOTH",
"200 246 OFFCURVE",
"215 259 OFFCURVE",
"231 259 CURVE"
);
}
);
width = 500;
}
);
unicode = F106;
},
{
glyphname = uniF107;
lastChange = "2012-09-06 13:46:57 -0700";
layers = (
{
layerId = "A7B0D76B-7820-46BB-8C83-FA5FED62DDC8";
name = Regular;
paths = (
{
closed = 1;
nodes = (
"139 217 OFFCURVE",
"49 305 OFFCURVE",
"49 305 CURVE SMOOTH",
"49 305 OFFCURVE",
"139 170 OFFCURVE",
"250 170 CURVE SMOOTH",
"360 170 OFFCURVE",
"450 305 OFFCURVE",
"450 305 CURVE SMOOTH",
"450 305 OFFCURVE",
"363 214 OFFCURVE",
"250 217 CURVE"
);
},
{
closed = 1;
nodes = (
"250 46 LINE",
"264 195 LINE",
"234 195 LINE"
);
},
{
closed = 1;
nodes = (
"103 82 LINE",
"190 204 LINE",
"163 219 LINE"
);
},
{
closed = 1;
nodes = (
"0 158 LINE",
"115 251 LINE",
"88 265 LINE"
);
},
{
closed = 1;
nodes = (
"309 204 LINE",
"396 82 LINE",
"336 219 LINE"
);
},
{
closed = 1;
nodes = (
"384 251 LINE",
"500 158 LINE",
"412 265 LINE"
);
},
{
closed = 1;
nodes = (
"130 283 OFFCURVE",
"31 356 OFFCURVE",
"31 356 CURVE SMOOTH",
"31 356 OFFCURVE",
"130 255 OFFCURVE",
"251 255 CURVE SMOOTH",
"371 255 OFFCURVE",
"471 356 OFFCURVE",
"471 356 CURVE SMOOTH",
"471 356 OFFCURVE",
"375 279 OFFCURVE",
"251 283 CURVE"
);
}
);
width = 500;
}
);
unicode = F107;
},
{
glyphname = uniF108;
lastChange = "2012-09-06 13:52:03 -0700";
layers = (
{
layerId = "A7B0D76B-7820-46BB-8C83-FA5FED62DDC8";
name = Regular;
paths = (
{
closed = 1;
nodes = (
"90 18 LINE",
"410 18 LINE",
"410 247 LINE",
"90 247 LINE"
);
},
{
closed = 1;
nodes = (
"185 344 LINE SMOOTH",
"185 394 OFFCURVE",
"205 414 OFFCURVE",
"249 414 CURVE SMOOTH",
"294 414 OFFCURVE",
"314 394 OFFCURVE",
"314 344 CURVE SMOOTH",
"314 247 LINE",
"386 247 LINE",
"386 344 LINE SMOOTH",
"386 433 OFFCURVE",
"336 483 OFFCURVE",
"249 483 CURVE SMOOTH",
"161 483 OFFCURVE",
"113 433 OFFCURVE",
"113 344 CURVE SMOOTH",
"113 247 LINE SMOOTH",
"185 247 LINE SMOOTH"
);
},
{
closed = 1;
nodes = (
"351 169 LINE",
"351 133 LINE",
"147 133 LINE",
"147 169 LINE"
);
},
{
closed = 1;
nodes = (
"351 114 LINE",
"351 78 LINE",
"147 78 LINE",
"147 114 LINE"
);
}
);
width = 500;
}
);
unicode = F108;
},
{
glyphname = uniF109;
lastChange = "2012-09-06 13:52:11 -0700";
layers = (
{
layerId = "A7B0D76B-7820-46BB-8C83-FA5FED62DDC8";
name = Regular;
paths = (
{
closed = 1;
nodes = (
"90 16 LINE",
"410 16 LINE",
"410 245 LINE",
"90 245 LINE"
);
},
{
closed = 1;
nodes = (
"211 410 OFFCURVE",
"227 414 OFFCURVE",
"250 414 CURVE SMOOTH",
"294 414 OFFCURVE",
"314 394 OFFCURVE",
"314 345 CURVE SMOOTH",
"314 245 LINE",
"386 245 LINE",
"386 345 LINE SMOOTH",
"386 433 OFFCURVE",
"337 485 OFFCURVE",
"250 485 CURVE SMOOTH",
"203 485 OFFCURVE",
"168 470 OFFCURVE",
"144 443 CURVE",
"117 415 OFFCURVE",
"167 364 OFFCURVE",
"200 398 CURVE"
);
},
{
closed = 1;
nodes = (
"351 169 LINE",
"351 133 LINE",
"147 133 LINE",
"147 169 LINE"
);
},
{
closed = 1;
nodes = (
"351 114 LINE",
"351 78 LINE",
"147 78 LINE",
"147 114 LINE"
);
}
);
width = 500;
}
);
unicode = F109;
},
{
glyphname = uniF10A;
lastChange = "2012-09-10 12:25:52 -0700";
layers = (
{
layerId = "A7B0D76B-7820-46BB-8C83-FA5FED62DDC8";
name = Regular;
paths = (
{
closed = 1;
nodes = (
"222 221 OFFCURVE",
"156 229 OFFCURVE",
"156 229 CURVE",
"37 110 LINE SMOOTH",
"10 83 OFFCURVE",
"10 62 OFFCURVE",
"37 36 CURVE SMOOTH",
"63 10 OFFCURVE",
"85 10 OFFCURVE",
"111 36 CURVE SMOOTH",
"230 156 LINE",
"230 156 OFFCURVE",
"222 221 OFFCURVE",
"222 221 CURVE"
);
},
{
closed = 1;
nodes = (
"234 490 OFFCURVE",
"161 417 OFFCURVE",
"161 326 CURVE SMOOTH",
"161 234 OFFCURVE",
"234 161 OFFCURVE",
"326 161 CURVE SMOOTH",
"416 161 OFFCURVE",
"490 234 OFFCURVE",
"490 326 CURVE SMOOTH",
"490 417 OFFCURVE",
"416 490 OFFCURVE",
"326 490 CURVE"
);
},
{
closed = 1;
nodes = (
"389 441 OFFCURVE",
"440 390 OFFCURVE",
"440 326 CURVE SMOOTH",
"440 263 OFFCURVE",
"389 210 OFFCURVE",
"326 210 CURVE SMOOTH",
"261 210 OFFCURVE",
"209 263 OFFCURVE",
"209 326 CURVE SMOOTH",
"209 390 OFFCURVE",
"261 441 OFFCURVE",
"326 441 CURVE"
);
}
);
width = 500;
}
);
unicode = F10A;
},
{
glyphname = uniF200;
lastChange = "2012-09-06 13:52:30 -0700";
layers = (
{
layerId = "A7B0D76B-7820-46BB-8C83-FA5FED62DDC8";
name = Regular;
paths = (
{
closed = 1;
nodes = (
"500 167 OFFCURVE",
"409 198 OFFCURVE",
"330 198 CURVE",
"279 121 OFFCURVE",
"221 121 OFFCURVE",
"169 198 CURVE",
"84 198 OFFCURVE",
"0 163 OFFCURVE",
"0 93 CURVE SMOOTH",
"0 82 OFFCURVE",
"0 62 OFFCURVE",
"0 62 CURVE SMOOTH",
"0 62 OFFCURVE",
"179 41 OFFCURVE",
"249 41 CURVE SMOOTH",
"320 41 OFFCURVE",
"500 64 OFFCURVE",
"500 64 CURVE SMOOTH",
"500 64 OFFCURVE",
"500 82 OFFCURVE",
"500 93 CURVE"
);
},
{
closed = 1;
nodes = (
"184 469 OFFCURVE",
"132 416 OFFCURVE",
"141 354 CURVE SMOOTH",
"148 289 OFFCURVE",
"207 192 OFFCURVE",
"249 192 CURVE SMOOTH",
"288 192 OFFCURVE",
"344 274 OFFCURVE",
"358 354 CURVE SMOOTH",
"371 418 OFFCURVE",
"314 469 OFFCURVE",
"249 469 CURVE"
);
}
);
width = 500;
}
);
unicode = F200;
},
{
glyphname = uniF201;
lastChange = "2012-09-06 12:22:35 -0700";
layers = (
{
layerId = "A7B0D76B-7820-46BB-8C83-FA5FED62DDC8";
name = Regular;
paths = (
{
closed = 1;
nodes = (
"125 432 OFFCURVE",
"25 362 OFFCURVE",
"25 275 CURVE SMOOTH",
"25 190 OFFCURVE",
"125 117 OFFCURVE",
"250 117 CURVE SMOOTH",
"372 117 OFFCURVE",
"474 190 OFFCURVE",
"474 275 CURVE SMOOTH",
"474 362 OFFCURVE",
"372 432 OFFCURVE",
"250 432 CURVE"
);
},
{
closed = 1;
nodes = (
"14 39 LINE",
"210 142 LINE",
"115 206 LINE"
);
}
);
width = 500;
}
);
unicode = F201;
},
{
glyphname = uniF202;
lastChange = "2012-09-06 13:54:22 -0700";
layers = (
{
layerId = "A7B0D76B-7820-46BB-8C83-FA5FED62DDC8";
name = Regular;
paths = (
{
closed = 1;
nodes = (
"483 251 OFFCURVE",
"448 275 OFFCURVE",
"442 277 CURVE SMOOTH",
"436 280 OFFCURVE",
"354 291 OFFCURVE",
"350 302 CURVE SMOOTH",
"345 313 OFFCURVE",
"393 343 OFFCURVE",
"397 387 CURVE SMOOTH",
"402 431 OFFCURVE",
"374 475 OFFCURVE",
"356 463 CURVE SMOOTH",
"336 450 OFFCURVE",
"342 434 OFFCURVE",
"332 409 CURVE SMOOTH",
"322 385 OFFCURVE",
"281 360 OFFCURVE",
"248 340 CURVE SMOOTH",
"216 318 OFFCURVE",
"189 305 OFFCURVE",
"157 292 CURVE",
"148 129 LINE",
"148 129 OFFCURVE",
"215 75 OFFCURVE",
"243 60 CURVE SMOOTH",
"273 44 OFFCURVE",
"361 25 OFFCURVE",
"383 35 CURVE SMOOTH",
"404 50 OFFCURVE",
"404 65 OFFCURVE",
"404 65 CURVE SMOOTH",
"404 65 OFFCURVE",
"417 63 OFFCURVE",
"436 84 CURVE SMOOTH",
"453 105 OFFCURVE",
"448 129 OFFCURVE",
"448 129 CURVE SMOOTH",
"448 129 OFFCURVE",
"457 141 OFFCURVE",
"464 160 CURVE SMOOTH",
"472 180 OFFCURVE",
"467 201 OFFCURVE",
"467 201 CURVE SMOOTH",
"467 201 OFFCURVE",
"471 200 OFFCURVE",
"477 225 CURVE"
);
},
{
closed = 1;
nodes = (
"17 302 LINE",
"36 96 LINE",
"109 100 LINE",
"102 304 LINE"
);
}
);
width = 500;
}
);
unicode = F202;
},
{
glyphname = uniF203;
lastChange = "2012-09-06 13:53:45 -0700";
layers = (
{
layerId = "A7B0D76B-7820-46BB-8C83-FA5FED62DDC8";
name = Regular;
paths = (
{
closed = 1;
nodes = (
"223 436 OFFCURVE",
"142 461 OFFCURVE",
"121 450 CURVE SMOOTH",
"101 439 OFFCURVE",
"100 424 OFFCURVE",
"100 424 CURVE SMOOTH",
"100 424 OFFCURVE",
"88 426 OFFCURVE",
"70 409 CURVE SMOOTH",
"52 390 OFFCURVE",
"56 367 OFFCURVE",
"56 367 CURVE SMOOTH",
"56 367 OFFCURVE",
"46 357 OFFCURVE",
"37 339 CURVE SMOOTH",
"29 322 OFFCURVE",
"33 302 OFFCURVE",
"33 302 CURVE SMOOTH",
"33 302 OFFCURVE",
"29 303 OFFCURVE",
"22 279 CURVE SMOOTH",
"17 256 OFFCURVE",
"45 230 OFFCURVE",
"50 226 CURVE SMOOTH",
"55 223 OFFCURVE",
"121 210 OFFCURVE",
"129 204 CURVE SMOOTH",
"138 198 OFFCURVE",
"92 164 OFFCURVE",
"89 123 CURVE SMOOTH",
"87 82 OFFCURVE",
"104 39 OFFCURVE",
"121 49 CURVE SMOOTH",
"140 60 OFFCURVE",
"146 77 OFFCURVE",
"157 97 CURVE SMOOTH",
"168 121 OFFCURVE",
"196 140 OFFCURVE",
"228 160 CURVE SMOOTH",
"261 178 OFFCURVE",
"313 198 OFFCURVE",
"343 210 CURVE",
"353 364 LINE",
"353 364 OFFCURVE",
"274 405 OFFCURVE",
"250 420 CURVE"
);
},
{
closed = 1;
nodes = (
"393 170 LINE",
"465 166 LINE",
"483 363 LINE",
"400 365 LINE"
);
}
);
width = 500;
}
);
unicode = F203;
},
{
glyphname = uniF204;
lastChange = "2012-09-06 13:57:21 -0700";
layers = (
{
layerId = "A7B0D76B-7820-46BB-8C83-FA5FED62DDC8";
name = Regular;
paths = (
{
closed = 1;
nodes = (
"442 354 OFFCURVE",
"358 439 OFFCURVE",
"252 439 CURVE SMOOTH",
"147 439 OFFCURVE",
"62 354 OFFCURVE",
"62 249 CURVE SMOOTH",
"61 145 OFFCURVE",
"146 59 OFFCURVE",
"251 59 CURVE SMOOTH",
"357 59 OFFCURVE",
"442 144 OFFCURVE",
"442 248 CURVE"
);
},
{
closed = 1;
nodes = (
"407 163 OFFCURVE",
"336 94 OFFCURVE",
"250 95 CURVE SMOOTH",
"166 96 OFFCURVE",
"97 164 OFFCURVE",
"96 249 CURVE SMOOTH",
"97 334 OFFCURVE",
"166 405 OFFCURVE",
"251 404 CURVE SMOOTH",
"336 405 OFFCURVE",
"407 334 OFFCURVE",
"407 248 CURVE"
);
},
{
closed = 1;
nodes = (
"372 317 OFFCURVE",
"319 369 OFFCURVE",
"251 370 CURVE SMOOTH",
"185 370 OFFCURVE",
"132 316 OFFCURVE",
"132 248 CURVE SMOOTH",
"132 182 OFFCURVE",
"184 129 OFFCURVE",
"251 130 CURVE SMOOTH",
"318 129 OFFCURVE",
"372 183 OFFCURVE",
"372 248 CURVE"
);
},
{
closed = 1;
nodes = (
"292 227 OFFCURVE",
"274 209 OFFCURVE",
"252 209 CURVE SMOOTH",
"230 210 OFFCURVE",
"212 227 OFFCURVE",
"212 250 CURVE SMOOTH",
"212 272 OFFCURVE",
"230 290 OFFCURVE",
"252 289 CURVE SMOOTH",
"274 289 OFFCURVE",
"292 272 OFFCURVE",
"292 249 CURVE"
);
},
{
closed = 1;
nodes = (
"428 219 LINE",
"399 145 LINE",
"454 122 LINE",
"485 196 LINE"
);
},
{
closed = 1;
nodes = (
"148 102 LINE",
"126 47 LINE",
"198 16 LINE",
"222 71 LINE"
);
},
{
closed = 1;
nodes = (
"305 481 LINE",
"282 426 LINE",
"357 396 LINE",
"379 450 LINE"
);
},
{
closed = 1;
nodes = (
"50 376 LINE",
"20 301 LINE",
"75 278 LINE",
"106 353 LINE"
);
},
{
closed = 1;
nodes = (
"359 103 LINE",
"282 69 LINE",
"304 13 LINE",
"381 45 LINE"
);
},
{
closed = 1;
nodes = (
"457 378 LINE",
"400 352 LINE",
"430 277 LINE",
"487 302 LINE"
);
},
{
closed = 1;
nodes = (
"200 484 LINE",
"124 452 LINE",
"147 393 LINE",
"223 426 LINE"
);
},
{
closed = 1;
nodes = (
"76 220 LINE",
"17 195 LINE",
"48 118 LINE",
"106 143 LINE"
);
}
);
width = 500;
}
);
unicode = F204;
},
{
glyphname = uniF205;
lastChange = "2012-09-06 12:14:58 -0700";
layers = (
{
layerId = "A7B0D76B-7820-46BB-8C83-FA5FED62DDC8";
name = Regular;
paths = (
{
closed = 1;
nodes = (
"322 500 OFFCURVE",
"180 500 OFFCURVE",
"89 412 CURVE SMOOTH",
"0 322 OFFCURVE",
"0 180 OFFCURVE",
"89 90 CURVE SMOOTH",
"180 0 OFFCURVE",
"322 0 OFFCURVE",
"412 90 CURVE SMOOTH",
"500 180 OFFCURVE",
"500 322 OFFCURVE",
"412 412 CURVE"
);
},
{
closed = 1;
nodes = (
"440 306 OFFCURVE",
"440 195 OFFCURVE",
"373 129 CURVE SMOOTH",
"306 61 OFFCURVE",
"195 61 OFFCURVE",
"129 129 CURVE SMOOTH",
"61 195 OFFCURVE",
"61 306 OFFCURVE",
"129 373 CURVE SMOOTH",
"195 440 OFFCURVE",
"306 440 OFFCURVE",
"373 373 CURVE"
);
},
{
closed = 1;
nodes = (
"236 403 OFFCURVE",
"223 390 OFFCURVE",
"223 376 CURVE SMOOTH",
"223 251 LINE SMOOTH",
"223 236 OFFCURVE",
"236 223 OFFCURVE",
"251 223 CURVE SMOOTH",
"265 223 OFFCURVE",
"277 236 OFFCURVE",
"277 251 CURVE SMOOTH",
"277 376 LINE SMOOTH",
"277 390 OFFCURVE",
"265 403 OFFCURVE",
"251 403 CURVE"
);
},
{
closed = 1;
nodes = (
"251 277 LINE SMOOTH",
"236 277 OFFCURVE",
"223 266 OFFCURVE",
"223 253 CURVE SMOOTH",
"223 237 OFFCURVE",
"236 225 OFFCURVE",
"251 225 CURVE SMOOTH",
"337 225 LINE SMOOTH",
"352 225 OFFCURVE",
"363 237 OFFCURVE",
"363 253 CURVE SMOOTH",
"363 266 OFFCURVE",
"352 277 OFFCURVE",
"337 277 CURVE"
);
}
);
width = 500;
}
);
unicode = F205;
},
{
glyphname = uniF206;
lastChange = "2012-09-06 13:04:46 -0700";
layers = (
{
layerId = "A7B0D76B-7820-46BB-8C83-FA5FED62DDC8";
name = Regular;
paths = (
{
closed = 1;
nodes = (
"126 485 OFFCURVE",
"115 474 OFFCURVE",
"115 461 CURVE SMOOTH",
"115 413 LINE SMOOTH",
"115 413 OFFCURVE",
"163 413 OFFCURVE",
"163 413 CURVE SMOOTH",
"163 461 LINE SMOOTH",
"163 474 OFFCURVE",
"153 485 OFFCURVE",
"139 485 CURVE"
);
},
{
closed = 1;
nodes = (
"350 485 OFFCURVE",
"338 474 OFFCURVE",
"338 461 CURVE SMOOTH",
"338 413 LINE SMOOTH",
"338 413 OFFCURVE",
"386 413 OFFCURVE",
"386 413 CURVE SMOOTH",
"386 461 LINE SMOOTH",
"386 474 OFFCURVE",
"375 485 OFFCURVE",
"361 485 CURVE"
);
},
{
closed = 1;
nodes = (
"473 151 LINE",
"375 47 LINE",
"375 151 LINE"
);
},
{
closed = 1;
nodes = (
"76 413 LINE SMOOTH",
"50 413 OFFCURVE",
"27 391 OFFCURVE",
"27 364 CURVE SMOOTH",
"27 339 LINE",
"473 339 LINE SMOOTH",
"473 364 LINE SMOOTH",
"473 391 OFFCURVE",
"451 413 OFFCURVE",
"423 413 CURVE"
);
},
{
closed = 1;
nodes = (
"473 304 OFFCURVE",
"27 304 OFFCURVE",
"27 304 CURVE SMOOTH",
"27 47 LINE",
"342 47 LINE",
"342 185 LINE",
"473 185 LINE SMOOTH",
"473 304 LINE SMOOTH"
);
}
);
width = 500;
}
);
unicode = F206;
},
{
glyphname = uniF207;
lastChange = "2012-09-06 12:15:18 -0700";
layers = (
{
layerId = "A7B0D76B-7820-46BB-8C83-FA5FED62DDC8";
name = Regular;
paths = (
{
closed = 1;
nodes = (
"186 309 LINE",
"310 184 LINE",
"457 334 LINE",
"334 456 LINE"
);
},
{
closed = 1;
nodes = (
"364 491 LINE SMOOTH",
"355 499 OFFCURVE",
"340 499 OFFCURVE",
"331 491 CURVE SMOOTH",
"299 460 LINE SMOOTH",
"292 451 OFFCURVE",
"292 438 OFFCURVE",
"299 427 CURVE SMOOTH",
"429 299 LINE SMOOTH",
"439 291 OFFCURVE",
"453 291 OFFCURVE",
"460 299 CURVE SMOOTH",
"491 331 LINE SMOOTH",
"501 339 OFFCURVE",
"501 354 OFFCURVE",
"491 362 CURVE"
);
},
{
closed = 1;
nodes = (
"186 396 OFFCURVE",
"78 286 OFFCURVE",
"78 286 CURVE SMOOTH",
"78 286 OFFCURVE",
"110 225 OFFCURVE",
"166 165 CURVE SMOOTH",
"226 108 OFFCURVE",
"288 76 OFFCURVE",
"288 76 CURVE SMOOTH",
"288 76 OFFCURVE",
"398 186 OFFCURVE",
"292 291 CURVE"
);
},
{
closed = 1;
nodes = (
"0 1 LINE",
"195 162 LINE",
"162 195 LINE"
);
}
);
width = 500;
}
);
unicode = F207;
},
{
glyphname = uniF300;
lastChange = "2012-09-06 12:15:43 -0700";
layers = (
{
layerId = "A7B0D76B-7820-46BB-8C83-FA5FED62DDC8";
name = Regular;
paths = (
{
closed = 1;
nodes = (
"459 415 OFFCURVE",
"458 436 OFFCURVE",
"458 455 CURVE",
"445 453 OFFCURVE",
"423 450 OFFCURVE",
"388 449 CURVE SMOOTH",
"353 447 OFFCURVE",
"308 447 OFFCURVE",
"255 447 CURVE SMOOTH",
"193 447 OFFCURVE",
"148 447 OFFCURVE",
"119 449 CURVE SMOOTH",
"91 450 OFFCURVE",
"70 453 OFFCURVE",
"56 455 CURVE",
"54 436 OFFCURVE",
"51 413 OFFCURVE",
"46 385 CURVE SMOOTH",
"41 356 OFFCURVE",
"38 332 OFFCURVE",
"33 313 CURVE",
"33 311 OFFCURVE",
"35 310 OFFCURVE",
"38 308 CURVE SMOOTH",
"41 307 OFFCURVE",
"46 307 OFFCURVE",
"49 307 CURVE SMOOTH",
"51 307 OFFCURVE",
"52 307 OFFCURVE",
"56 307 CURVE SMOOTH",
"57 307 OFFCURVE",
"59 308 OFFCURVE",
"59 308 CURVE",
"68 334 OFFCURVE",
"86 359 OFFCURVE",
"108 383 CURVE SMOOTH",
"132 407 OFFCURVE",
"151 418 OFFCURVE",
"167 418 CURVE SMOOTH",
"172 418 LINE SMOOTH",
"182 418 OFFCURVE",
"188 417 OFFCURVE",
"193 413 CURVE SMOOTH",
"196 410 OFFCURVE",
"198 404 OFFCURVE",
"198 396 CURVE SMOOTH",
"198 120 LINE SMOOTH",
"198 104 OFFCURVE",
"194 91 OFFCURVE",
"187 85 CURVE SMOOTH",
"180 78 OFFCURVE",
"164 73 OFFCURVE",
"142 70 CURVE",
"140 70 OFFCURVE",
"139 69 OFFCURVE",
"139 66 CURVE SMOOTH",
"137 62 OFFCURVE",
"137 59 OFFCURVE",
"137 58 CURVE SMOOTH",
"137 54 OFFCURVE",
"137 53 OFFCURVE",
"139 50 CURVE SMOOTH",
"139 46 OFFCURVE",
"140 45 OFFCURVE",
"142 45 CURVE SMOOTH",
"161 45 OFFCURVE",
"180 45 OFFCURVE",
"199 46 CURVE SMOOTH",
"218 46 OFFCURVE",
"238 48 OFFCURVE",
"255 48 CURVE SMOOTH",
"273 48 OFFCURVE",
"292 46 OFFCURVE",
"311 46 CURVE SMOOTH",
"330 45 OFFCURVE",
"349 45 OFFCURVE",
"368 45 CURVE SMOOTH",
"370 45 OFFCURVE",
"370 46 OFFCURVE",
"372 50 CURVE SMOOTH",
"373 53 OFFCURVE",
"373 54 OFFCURVE",
"373 58 CURVE SMOOTH",
"373 59 OFFCURVE",
"373 62 OFFCURVE",
"372 66 CURVE SMOOTH",
"370 69 OFFCURVE",
"370 70 OFFCURVE",
"368 70 CURVE",
"346 72 OFFCURVE",
"330 77 OFFCURVE",
"324 85 CURVE SMOOTH",
"316 93 OFFCURVE",
"313 104 OFFCURVE",
"313 120 CURVE SMOOTH",
"313 396 LINE SMOOTH",
"313 404 OFFCURVE",
"314 409 OFFCURVE",
"319 413 CURVE SMOOTH",
"322 417 OFFCURVE",
"329 418 OFFCURVE",
"338 418 CURVE SMOOTH",
"346 418 LINE SMOOTH",
"364 418 OFFCURVE",
"383 405 OFFCURVE",
"404 380 CURVE SMOOTH",
"424 354 OFFCURVE",
"437 330 OFFCURVE",
"442 308 CURVE",
"444 308 OFFCURVE",
"445 307 OFFCURVE",
"447 307 CURVE SMOOTH",
"450 307 OFFCURVE",
"451 307 OFFCURVE",
"453 307 CURVE SMOOTH",
"458 307 OFFCURVE",
"461 307 OFFCURVE",
"464 308 CURVE SMOOTH",
"467 310 OFFCURVE",
"467 311 OFFCURVE",
"467 313 CURVE",
"466 338 OFFCURVE",
"464 362 OFFCURVE",
"461 388 CURVE SMOOTH"
);
}
);
width = 500;
}
);
unicode = F300;
},
{
glyphname = uniF301;
lastChange = "2012-09-06 12:15:38 -0700";
layers = (
{
layerId = "A7B0D76B-7820-46BB-8C83-FA5FED62DDC8";
name = Regular;
paths = (
{
closed = 1;
nodes = (
"176 446 OFFCURVE",
"115 449 OFFCURVE",
"90 454 CURVE",
"80 421 OFFCURVE",
"69 387 OFFCURVE",
"57 353 CURVE",
"56 350 OFFCURVE",
"59 348 OFFCURVE",
"63 348 CURVE SMOOTH",
"69 348 OFFCURVE",
"71 349 OFFCURVE",
"73 353 CURVE SMOOTH",
"83 376 OFFCURVE",
"98 394 OFFCURVE",
"116 408 CURVE SMOOTH",
"136 421 OFFCURVE",
"157 427 OFFCURVE",
"182 427 CURVE SMOOTH",
"212 427 LINE SMOOTH",
"220 427 OFFCURVE",
"225 427 OFFCURVE",
"228 425 CURVE SMOOTH",
"231 423 OFFCURVE",
"232 420 OFFCURVE",
"232 415 CURVE SMOOTH",
"232 412 OFFCURVE",
"232 409 OFFCURVE",
"231 406 CURVE SMOOTH",
"160 110 LINE SMOOTH",
"156 96 OFFCURVE",
"153 86 OFFCURVE",
"149 80 CURVE SMOOTH",
"145 76 OFFCURVE",
"138 71 OFFCURVE",
"130 68 CURVE SMOOTH",
"121 66 OFFCURVE",
"109 64 OFFCURVE",
"94 62 CURVE SMOOTH",
"90 62 OFFCURVE",
"88 58 OFFCURVE",
"88 51 CURVE SMOOTH",
"88 48 OFFCURVE",
"89 46 OFFCURVE",
"90 46 CURVE SMOOTH",
"101 46 OFFCURVE",
"116 47 OFFCURVE",
"135 48 CURVE SMOOTH",
"152 49 OFFCURVE",
"165 49 OFFCURVE",
"176 49 CURVE SMOOTH",
"186 49 OFFCURVE",
"198 49 OFFCURVE",
"215 48 CURVE SMOOTH",
"234 47 OFFCURVE",
"250 46 OFFCURVE",
"265 46 CURVE SMOOTH",
"266 46 OFFCURVE",
"268 47 OFFCURVE",
"269 49 CURVE SMOOTH",
"271 52 OFFCURVE",
"271 54 OFFCURVE",
"271 57 CURVE SMOOTH",
"271 60 OFFCURVE",
"270 62 OFFCURVE",
"268 62 CURVE SMOOTH",
"248 64 OFFCURVE",
"235 67 OFFCURVE",
"228 71 CURVE SMOOTH",
"221 76 OFFCURVE",
"216 82 OFFCURVE",
"216 91 CURVE SMOOTH",
"216 95 OFFCURVE",
"217 101 OFFCURVE",
"221 110 CURVE SMOOTH",
"289 406 LINE SMOOTH",
"291 414 OFFCURVE",
"294 420 OFFCURVE",
"299 423 CURVE SMOOTH",
"304 426 OFFCURVE",
"310 427 OFFCURVE",
"320 427 CURVE SMOOTH",
"335 427 LINE SMOOTH",
"365 427 OFFCURVE",
"386 422 OFFCURVE",
"400 411 CURVE SMOOTH",
"413 398 OFFCURVE",
"420 379 OFFCURVE",
"422 352 CURVE",
"422 349 OFFCURVE",
"424 348 OFFCURVE",
"430 348 CURVE SMOOTH",
"435 348 OFFCURVE",
"439 349 OFFCURVE",
"439 352 CURVE SMOOTH",
"439 386 OFFCURVE",
"441 420 OFFCURVE",
"445 454 CURVE",
"417 449 OFFCURVE",
"359 446 OFFCURVE",
"270 446 CURVE SMOOTH"
);
}
);
width = 500;
}
);
unicode = F301;
},
{
glyphname = uniF302;
lastChange = "2012-09-06 12:16:01 -0700";
layers = (
{
layerId = "A7B0D76B-7820-46BB-8C83-FA5FED62DDC8";
name = Regular;
paths = (
{
closed = 1;
nodes = (
"25 87 LINE",
"451 87 LINE",
"451 121 LINE",
"25 121 LINE"
);
},
{
closed = 1;
nodes = (
"294 380 LINE",
"500 380 LINE",
"500 414 LINE",
"294 414 LINE"
);
},
{
closed = 1;
nodes = (
"294 281 LINE",
"451 281 LINE",
"451 316 LINE",
"294 316 LINE"
);
},
{
closed = 1;
nodes = (
"237 390 OFFCURVE",
"236 401 OFFCURVE",
"236 412 CURVE",
"229 410 OFFCURVE",
"215 409 OFFCURVE",
"196 408 CURVE SMOOTH",
"178 407 OFFCURVE",
"153 407 OFFCURVE",
"123 407 CURVE SMOOTH",
"89 407 OFFCURVE",
"64 407 OFFCURVE",
"48 408 CURVE SMOOTH",
"32 409 OFFCURVE",
"20 410 OFFCURVE",
"12 412 CURVE",
"12 401 OFFCURVE",
"9 388 OFFCURVE",
"7 372 CURVE SMOOTH",
"5 357 OFFCURVE",
"2 344 OFFCURVE",
"0 333 CURVE",
"0 332 OFFCURVE",
"1 331 OFFCURVE",
"4 330 CURVE SMOOTH",
"5 329 OFFCURVE",
"7 329 OFFCURVE",
"8 329 CURVE SMOOTH",
"9 329 OFFCURVE",
"11 329 OFFCURVE",
"12 329 CURVE SMOOTH",
"13 329 OFFCURVE",
"14 330 OFFCURVE",
"14 330 CURVE SMOOTH",
"20 346 OFFCURVE",
"29 358 OFFCURVE",
"43 371 CURVE SMOOTH",
"55 385 OFFCURVE",
"65 392 OFFCURVE",
"74 392 CURVE SMOOTH",
"78 392 LINE SMOOTH",
"82 392 OFFCURVE",
"87 391 OFFCURVE",
"88 388 CURVE SMOOTH",
"90 387 OFFCURVE",
"92 384 OFFCURVE",
"92 379 CURVE SMOOTH",
"92 225 LINE SMOOTH",
"92 216 OFFCURVE",
"89 210 OFFCURVE",
"86 207 CURVE SMOOTH",
"80 203 OFFCURVE",
"72 199 OFFCURVE",
"60 198 CURVE",
"59 198 OFFCURVE",
"59 197 OFFCURVE",
"58 195 CURVE SMOOTH",
"58 193 OFFCURVE",
"57 192 OFFCURVE",
"57 191 CURVE SMOOTH",
"57 190 OFFCURVE",
"58 188 OFFCURVE",
"58 187 CURVE SMOOTH",
"59 185 OFFCURVE",
"59 184 OFFCURVE",
"60 184 CURVE SMOOTH",
"71 184 OFFCURVE",
"80 184 OFFCURVE",
"93 185 CURVE SMOOTH",
"103 185 OFFCURVE",
"113 186 OFFCURVE",
"123 186 CURVE SMOOTH",
"133 186 OFFCURVE",
"144 185 OFFCURVE",
"154 185 CURVE SMOOTH",
"164 184 OFFCURVE",
"176 184 OFFCURVE",
"186 184 CURVE SMOOTH",
"187 184 OFFCURVE",
"187 185 OFFCURVE",
"188 187 CURVE SMOOTH",
"188 188 OFFCURVE",
"189 190 OFFCURVE",
"189 191 CURVE SMOOTH",
"189 192 OFFCURVE",
"188 193 OFFCURVE",
"188 195 CURVE SMOOTH",
"187 197 OFFCURVE",
"187 198 OFFCURVE",
"186 198 CURVE",
"174 199 OFFCURVE",
"164 203 OFFCURVE",
"161 207 CURVE SMOOTH",
"156 210 OFFCURVE",
"154 217 OFFCURVE",
"154 225 CURVE SMOOTH",
"154 379 LINE SMOOTH",
"154 384 OFFCURVE",
"155 387 OFFCURVE",
"158 388 CURVE SMOOTH",
"160 391 OFFCURVE",
"163 392 OFFCURVE",
"169 392 CURVE SMOOTH",
"174 392 LINE SMOOTH",
"184 392 OFFCURVE",
"194 385 OFFCURVE",
"205 370 CURVE SMOOTH",
"216 355 OFFCURVE",
"224 343 OFFCURVE",
"228 330 CURVE",
"228 330 OFFCURVE",
"229 329 OFFCURVE",
"229 329 CURVE SMOOTH",
"231 329 OFFCURVE",
"233 329 OFFCURVE",
"234 329 CURVE SMOOTH",
"236 329 OFFCURVE",
"238 329 OFFCURVE",
"238 330 CURVE SMOOTH",
"241 331 OFFCURVE",
"241 332 OFFCURVE",
"241 333 CURVE",
"240 347 OFFCURVE",
"238 361 OFFCURVE",
"238 375 CURVE"
);
},
{
closed = 1;
nodes = (
"294 185 LINE",
"500 185 LINE",
"500 220 LINE",
"294 220 LINE"
);
}
);
width = 500;
}
);
unicode = F302;
},
{
glyphname = uniF303;
lastChange = "2012-09-06 12:16:16 -0700";
layers = (
{
layerId = "A7B0D76B-7820-46BB-8C83-FA5FED62DDC8";
name = Regular;
paths = (
{
closed = 1;
nodes = (
"44 280 LINE",
"76 280 LINE",
"76 432 LINE",
"49 432 LINE",
"49 430 OFFCURVE",
"49 429 OFFCURVE",
"48 426 CURVE SMOOTH",
"48 421 OFFCURVE",
"45 418 OFFCURVE",
"43 414 CURVE SMOOTH",
"41 411 OFFCURVE",
"35 409 OFFCURVE",
"29 406 CURVE SMOOTH",
"25 406 OFFCURVE",
"18 405 OFFCURVE",
"8 405 CURVE",
"8 385 LINE",
"44 385 LINE"
);
},
{
closed = 1;
nodes = (
"105 64 LINE",
"105 90 LINE",
"40 90 LINE",
"41 93 OFFCURVE",
"42 95 OFFCURVE",
"45 99 CURVE SMOOTH",
"48 101 OFFCURVE",
"53 105 OFFCURVE",
"61 111 CURVE SMOOTH",
"73 119 LINE SMOOTH",
"83 126 OFFCURVE",
"91 131 OFFCURVE",
"94 138 CURVE SMOOTH",
"101 147 OFFCURVE",
"104 156 OFFCURVE",
"104 168 CURVE SMOOTH",
"104 182 OFFCURVE",
"100 196 OFFCURVE",
"91 204 CURVE SMOOTH",
"81 212 OFFCURVE",
"67 216 OFFCURVE",
"52 216 CURVE SMOOTH",
"32 216 OFFCURVE",
"17 209 OFFCURVE",
"9 194 CURVE SMOOTH",
"5 187 OFFCURVE",
"2 175 OFFCURVE",
"2 162 CURVE",
"32 162 LINE",
"32 171 OFFCURVE",
"34 178 OFFCURVE",
"35 182 CURVE SMOOTH",
"39 189 OFFCURVE",
"44 192 OFFCURVE",
"53 192 CURVE SMOOTH",
"60 192 OFFCURVE",
"65 190 OFFCURVE",
"67 185 CURVE SMOOTH",
"73 182 OFFCURVE",
"74 175 OFFCURVE",
"74 169 CURVE SMOOTH",
"74 161 OFFCURVE",
"70 155 OFFCURVE",
"65 147 CURVE SMOOTH",
"60 143 OFFCURVE",
"51 136 OFFCURVE",
"39 126 CURVE SMOOTH",
"22 115 OFFCURVE",
"12 104 OFFCURVE",
"7 93 CURVE",
"2 85 OFFCURVE",
"0 76 OFFCURVE",
"0 64 CURVE",
"0 64 LINE"
);
},
{
closed = 1;
nodes = (
"168 182 LINE",
"500 182 LINE",
"500 219 LINE",
"168 219 LINE"
);
},
{
closed = 1;
nodes = (
"168 74 LINE",
"446 74 LINE",
"446 112 LINE",
"168 112 LINE"
);
},
{
closed = 1;
nodes = (
"168 399 LINE",
"500 399 LINE",
"500 437 LINE",
"168 437 LINE"
);
},
{
closed = 1;
nodes = (
"168 289 LINE",
"446 289 LINE",
"446 327 LINE",
"168 327 LINE"
);
}
);
width = 500;
}
);
unicode = F303;
},
{
glyphname = uniF304;
lastChange = "2012-09-06 12:16:27 -0700";
layers = (
{
layerId = "A7B0D76B-7820-46BB-8C83-FA5FED62DDC8";
name = Regular;
paths = (
{
closed = 1;
nodes = (
"154 173 LINE",
"490 173 LINE",
"490 211 LINE",
"154 211 LINE"
);
},
{
closed = 1;
nodes = (
"154 64 LINE",
"435 64 LINE",
"435 102 LINE",
"154 102 LINE"
);
},
{
closed = 1;
nodes = (
"154 393 LINE",
"490 393 LINE",
"490 431 LINE",
"154 431 LINE"
);
},
{
closed = 1;
nodes = (
"154 281 LINE",
"435 281 LINE",
"435 320 LINE",
"154 320 LINE"
);
},
{
closed = 1;
nodes = (
"30 437 OFFCURVE",
"10 415 OFFCURVE",
"10 388 CURVE SMOOTH",
"10 362 OFFCURVE",
"30 340 OFFCURVE",
"57 340 CURVE SMOOTH",
"83 340 OFFCURVE",
"105 362 OFFCURVE",
"105 388 CURVE SMOOTH",
"105 415 OFFCURVE",
"83 437 OFFCURVE",
"57 437 CURVE"
);
},
{
closed = 1;
nodes = (
"30 227 OFFCURVE",
"10 205 OFFCURVE",
"10 179 CURVE SMOOTH",
"10 152 OFFCURVE",
"30 130 OFFCURVE",
"57 130 CURVE SMOOTH",
"83 130 OFFCURVE",
"105 152 OFFCURVE",
"105 179 CURVE SMOOTH",
"105 205 OFFCURVE",
"83 227 OFFCURVE",
"57 227 CURVE"
);
}
);
width = 500;
}
);
unicode = F304;
},
{
glyphname = uniF305;
lastChange = "2012-09-06 16:25:26 -0700";
layers = (
{
layerId = "A7B0D76B-7820-46BB-8C83-FA5FED62DDC8";
name = Regular;
paths = (
{
closed = 1;
nodes = (
"203 280 OFFCURVE",
"153 291 OFFCURVE",
"130 268 CURVE SMOOTH",
"34 173 LINE SMOOTH",
"11 149 OFFCURVE",
"23 99 OFFCURVE",
"63 61 CURVE SMOOTH",
"101 22 OFFCURVE",
"152 10 OFFCURVE",
"174 33 CURVE SMOOTH",
"271 128 LINE SMOOTH",
"293 151 OFFCURVE",
"281 202 OFFCURVE",
"242 241 CURVE"
);
},
{
closed = 1;
nodes = (
"227 189 OFFCURVE",
"235 158 OFFCURVE",
"227 151 CURVE SMOOTH",
"152 76 LINE SMOOTH",
"146 69 OFFCURVE",
"115 77 OFFCURVE",
"96 95 CURVE SMOOTH",
"78 112 OFFCURVE",
"70 144 OFFCURVE",
"77 151 CURVE SMOOTH",
"152 226 LINE SMOOTH",
"160 234 OFFCURVE",
"191 225 OFFCURVE",
"209 207 CURVE"
);
},
{
closed = 1;
nodes = (
"402 477 OFFCURVE",
"351 490 OFFCURVE",
"327 467 CURVE SMOOTH",
"232 370 LINE SMOOTH",
"210 348 OFFCURVE",
"220 298 OFFCURVE",
"260 259 CURVE SMOOTH",
"298 220 OFFCURVE",
"350 207 OFFCURVE",
"373 230 CURVE SMOOTH",
"468 327 LINE SMOOTH",
"491 350 OFFCURVE",
"480 399 OFFCURVE",
"440 438 CURVE"
);
},
{
closed = 1;
nodes = (
"424 386 OFFCURVE",
"432 355 OFFCURVE",
"425 348 CURVE SMOOTH",
"350 274 LINE SMOOTH",
"342 267 OFFCURVE",
"312 275 OFFCURVE",
"293 293 CURVE SMOOTH",
"276 310 OFFCURVE",
"267 341 OFFCURVE",
"275 349 CURVE SMOOTH",
"349 424 LINE SMOOTH",
"356 432 OFFCURVE",
"388 423 OFFCURVE",
"407 404 CURVE"
);
},
{
closed = 1;
nodes = (
"327 355 OFFCURVE",
"308 353 OFFCURVE",
"298 342 CURVE SMOOTH",
"157 203 LINE SMOOTH",
"146 192 OFFCURVE",
"146 173 OFFCURVE",
"160 159 CURVE SMOOTH",
"175 145 OFFCURVE",
"193 146 OFFCURVE",
"205 156 CURVE SMOOTH",
"346 295 LINE SMOOTH",
"357 306 OFFCURVE",
"355 325 OFFCURVE",
"342 341 CURVE"
);
}
);
width = 500;
}
);
unicode = F305;
},
{
glyphname = uniF306;
lastChange = "2012-09-06 16:27:20 -0700";
layers = (
{
layerId = "A7B0D76B-7820-46BB-8C83-FA5FED62DDC8";
name = Regular;
paths = (
{
closed = 1;
nodes = (
"262 212 OFFCURVE",
"213 259 OFFCURVE",
"213 259 CURVE SMOOTH",
"132 176 LINE SMOOTH",
"120 163 OFFCURVE",
"119 146 OFFCURVE",
"134 132 CURVE SMOOTH",
"149 118 OFFCURVE",
"166 118 OFFCURVE",
"178 130 CURVE SMOOTH",
"262 212 LINE SMOOTH"
);
},
{
closed = 1;
nodes = (
"361 388 OFFCURVE",
"342 388 OFFCURVE",
"332 378 CURVE SMOOTH",
"251 295 LINE SMOOTH",
"251 295 OFFCURVE",
"296 248 OFFCURVE",
"296 248 CURVE SMOOTH",
"379 329 LINE SMOOTH",
"391 342 OFFCURVE",
"391 360 OFFCURVE",
"376 372 CURVE"
);
},
{
closed = 1;
nodes = (
"198 223 OFFCURVE",
"156 243 OFFCURVE",
"131 228 CURVE SMOOTH",
"27 166 LINE SMOOTH",
"1 151 OFFCURVE",
"0 105 OFFCURVE",
"26 62 CURVE SMOOTH",
"51 20 OFFCURVE",
"93 -1 OFFCURVE",
"118 14 CURVE SMOOTH",
"223 75 LINE SMOOTH",
"247 91 OFFCURVE",
"248 138 OFFCURVE",
"223 180 CURVE"
);
},
{
closed = 1;
nodes = (
"198 138 OFFCURVE",
"198 110 OFFCURVE",
"189 106 CURVE SMOOTH",
"108 55 LINE SMOOTH",
"101 51 OFFCURVE",
"75 65 OFFCURVE",
"64 85 CURVE SMOOTH",
"51 104 OFFCURVE",
"51 134 OFFCURVE",
"59 138 CURVE SMOOTH",
"141 186 LINE SMOOTH",
"150 191 OFFCURVE",
"175 177 OFFCURVE",
"186 158 CURVE"
);
},
{
closed = 1;
nodes = (
"393 501 OFFCURVE",
"346 498 OFFCURVE",
"332 473 CURVE SMOOTH",
"271 369 LINE SMOOTH",
"255 343 OFFCURVE",
"277 302 OFFCURVE",
"321 277 CURVE SMOOTH",
"363 253 OFFCURVE",
"410 254 OFFCURVE",
"425 279 CURVE SMOOTH",
"486 384 LINE SMOOTH",
"500 410 OFFCURVE",
"478 451 OFFCURVE",
"435 476 CURVE"
);
},
{
closed = 1;
nodes = (
"434 427 OFFCURVE",
"448 403 OFFCURVE",
"442 394 CURVE SMOOTH",
"395 311 LINE SMOOTH",
"391 304 OFFCURVE",
"362 303 OFFCURVE",
"342 316 CURVE SMOOTH",
"322 326 OFFCURVE",
"308 353 OFFCURVE",
"312 360 CURVE SMOOTH",
"361 441 LINE SMOOTH",
"366 451 OFFCURVE",
"395 450 OFFCURVE",
"414 438 CURVE"
);
}
);
width = 500;
}
);
unicode = F306;
},
{
glyphname = uniF307;
lastChange = "2012-09-06 12:17:04 -0700";
layers = (
{
layerId = "A7B0D76B-7820-46BB-8C83-FA5FED62DDC8";
name = Regular;
paths = (
{
closed = 1;
nodes = (
"109 373 LINE",
"138 367 LINE",
"151 463 LINE",
"124 465 LINE"
);
},
{
closed = 1;
nodes = (
"423 77 LINE",
"450 73 LINE",
"500 411 LINE",
"473 416 LINE"
);
},
{
closed = 1;
nodes = (
"139 437 LINE",
"477 388 LINE",
"482 415 LINE",
"142 464 LINE"
);
},
{
closed = 1;
nodes = (
"404 81 LINE",
"433 76 LINE",
"436 102 LINE",
"408 108 LINE"
);
},
{
closed = 1;
nodes = (
"0 376 LINE",
"37 36 LINE",
"65 38 LINE",
"26 378 LINE"
);
},
{
closed = 1;
nodes = (
"161 319 OFFCURVE",
"140 336 OFFCURVE",
"116 333 CURVE SMOOTH",
"91 331 OFFCURVE",
"74 310 OFFCURVE",
"76 285 CURVE SMOOTH",
"79 261 OFFCURVE",
"101 243 OFFCURVE",
"126 246 CURVE SMOOTH",
"150 248 OFFCURVE",
"166 270 OFFCURVE",
"164 294 CURVE"
);
},
{
closed = 1;
nodes = (
"122 214 OFFCURVE",
"80 153 OFFCURVE",
"44 97 CURVE",
"49 52 OFFCURVE",
"49 52 OFFCURVE",
"49 52 CURVE",
"301 81 LINE",
"301 81 OFFCURVE",
"164 218 OFFCURVE",
"140 215 CURVE"
);
},
{
closed = 1;
nodes = (
"341 240 OFFCURVE",
"299 272 OFFCURVE",
"281 269 CURVE SMOOTH",
"249 265 OFFCURVE",
"110 60 OFFCURVE",
"110 60 CURVE",
"399 92 LINE",
"399 92 OFFCURVE",
"394 129 OFFCURVE",
"387 201 CURVE"
);
},
{
closed = 1;
nodes = (
"349 416 LINE",
"388 76 LINE",
"416 78 LINE",
"377 418 LINE"
);
},
{
closed = 1;
nodes = (
"17 378 LINE",
"22 351 LINE",
"361 389 LINE",
"359 417 LINE"
);
},
{
closed = 1;
nodes = (
"53 66 LINE",
"57 37 LINE",
"397 76 LINE",
"393 103 LINE"
);
}
);
width = 500;
}
);
unicode = F307;
},
{
glyphname = uniF308;
lastChange = "2012-09-06 12:17:15 -0700";
layers = (
{
layerId = "A7B0D76B-7820-46BB-8C83-FA5FED62DDC8";
name = Regular;
paths = (
{
closed = 1;
nodes = (
"317 406 OFFCURVE",
"341 417 OFFCURVE",
"371 417 CURVE SMOOTH",
"401 417 OFFCURVE",
"422 408 OFFCURVE",
"440 388 CURVE SMOOTH",
"458 369 OFFCURVE",
"466 348 OFFCURVE",
"466 325 CURVE SMOOTH",
"466 299 OFFCURVE",
"458 280 OFFCURVE",
"442 266 CURVE SMOOTH",
"429 253 OFFCURVE",
"412 246 OFFCURVE",
"392 246 CURVE SMOOTH",
"387 246 OFFCURVE",
"385 246 OFFCURVE",
"383 248 CURVE SMOOTH",
"378 248 OFFCURVE",
"376 251 OFFCURVE",
"376 251 CURVE SMOOTH",
"371 251 OFFCURVE",
"369 248 OFFCURVE",
"369 244 CURVE SMOOTH",
"369 242 OFFCURVE",
"367 237 OFFCURVE",
"367 228 CURVE SMOOTH",
"367 205 OFFCURVE",
"376 182 OFFCURVE",
"396 164 CURVE SMOOTH",
"413 144 OFFCURVE",
"433 128 OFFCURVE",
"453 118 CURVE",
"456 118 OFFCURVE",
"456 113 OFFCURVE",
"453 109 CURVE SMOOTH",
"451 104 OFFCURVE",
"449 100 OFFCURVE",
"447 98 CURVE SMOOTH",
"444 93 OFFCURVE",
"440 91 OFFCURVE",
"435 89 CURVE SMOOTH",
"431 84 OFFCURVE",
"426 84 OFFCURVE",
"424 84 CURVE",
"376 111 OFFCURVE",
"339 142 OFFCURVE",
"313 176 CURVE SMOOTH",
"285 211 OFFCURVE",
"271 253 OFFCURVE",
"271 299 CURVE SMOOTH",
"271 333 OFFCURVE",
"280 360 OFFCURVE",
"298 383 CURVE SMOOTH"
);
},
{
closed = 1;
nodes = (
"81 406 OFFCURVE",
"105 417 OFFCURVE",
"136 417 CURVE SMOOTH",
"162 417 OFFCURVE",
"186 408 OFFCURVE",
"203 388 CURVE SMOOTH",
"221 369 OFFCURVE",
"230 348 OFFCURVE",
"230 325 CURVE SMOOTH",
"230 299 OFFCURVE",
"221 280 OFFCURVE",
"205 266 CURVE SMOOTH",
"190 253 OFFCURVE",
"173 246 OFFCURVE",
"153 246 CURVE SMOOTH",
"151 246 OFFCURVE",
"150 246 OFFCURVE",
"145 248 CURVE SMOOTH",
"143 248 OFFCURVE",
"141 251 OFFCURVE",
"139 251 CURVE SMOOTH",
"136 251 OFFCURVE",
"134 248 OFFCURVE",
"134 244 CURVE SMOOTH",
"132 242 OFFCURVE",
"132 237 OFFCURVE",
"132 228 CURVE SMOOTH",
"132 205 OFFCURVE",
"141 182 OFFCURVE",
"160 164 CURVE SMOOTH",
"178 144 OFFCURVE",
"197 128 OFFCURVE",
"216 118 CURVE",
"219 118 OFFCURVE",
"219 113 OFFCURVE",
"216 109 CURVE SMOOTH",
"214 104 OFFCURVE",
"212 100 OFFCURVE",
"210 98 CURVE SMOOTH",
"207 93 OFFCURVE",
"203 91 OFFCURVE",
"199 89 CURVE SMOOTH",
"195 84 OFFCURVE",
"190 84 OFFCURVE",
"188 84 CURVE",
"141 111 OFFCURVE",
"103 142 OFFCURVE",
"75 176 CURVE SMOOTH",
"48 211 OFFCURVE",
"36 253 OFFCURVE",
"36 299 CURVE SMOOTH",
"36 333 OFFCURVE",
"44 360 OFFCURVE",
"61 383 CURVE SMOOTH"
);
}
);
width = 500;
}
);
unicode = F308;
},
{
glyphname = uniF309;
lastChange = "2012-09-06 12:17:24 -0700";
layers = (
{
layerId = "A7B0D76B-7820-46BB-8C83-FA5FED62DDC8";
name = Regular;
paths = (
{
closed = 1;
nodes = (
"68 249 LINE",
"165 327 LINE",
"135 359 LINE",
"0 246 LINE",
"135 135 LINE",
"165 166 LINE"
);
},
{
closed = 1;
nodes = (
"298 410 LINE",
"160 90 LINE",
"208 90 LINE",
"345 410 LINE"
);
},
{
closed = 1;
nodes = (
"435 246 LINE",
"337 166 LINE",
"369 135 LINE",
"500 246 LINE",
"369 359 LINE",
"337 327 LINE"
);
}
);
width = 500;
}
);
unicode = F309;
},
{
glyphname = uniF30A;
lastChange = "2012-09-06 12:17:36 -0700";
layers = (
{
layerId = "A7B0D76B-7820-46BB-8C83-FA5FED62DDC8";
name = Regular;
paths = (
{
closed = 1;
nodes = (
"94 474 LINE SMOOTH",
"84 474 OFFCURVE",
"77 465 OFFCURVE",
"77 456 CURVE SMOOTH",
"77 45 LINE SMOOTH",
"77 35 OFFCURVE",
"84 27 OFFCURVE",
"94 27 CURVE SMOOTH",
"407 27 LINE SMOOTH",
"417 27 OFFCURVE",
"424 35 OFFCURVE",
"424 45 CURVE SMOOTH",
"424 307 LINE",
"424 307 OFFCURVE",
"265 474 OFFCURVE",
"265 474 CURVE SMOOTH"
);
},
{
closed = 1;
nodes = (
"265 428 OFFCURVE",
"265 307 OFFCURVE",
"265 307 CURVE SMOOTH",
"265 307 OFFCURVE",
"378 307 OFFCURVE",
"378 307 CURVE",
"378 88 LINE SMOOTH",
"378 80 OFFCURVE",
"372 74 OFFCURVE",
"365 74 CURVE SMOOTH",
"137 74 LINE SMOOTH",
"129 74 OFFCURVE",
"123 80 OFFCURVE",
"123 88 CURVE SMOOTH",
"123 413 LINE SMOOTH",
"123 422 OFFCURVE",
"129 428 OFFCURVE",
"137 428 CURVE SMOOTH",
"265 428 LINE SMOOTH"
);
}
);
width = 500;
}
);
unicode = F30A;
},
{
glyphname = uniF30B;
lastChange = "2012-09-06 12:17:49 -0700";
layers = (
{
layerId = "A7B0D76B-7820-46BB-8C83-FA5FED62DDC8";
name = Regular;
paths = (
{
closed = 1;
nodes = (
"65 474 LINE SMOOTH",
"55 474 OFFCURVE",
"48 465 OFFCURVE",
"48 456 CURVE SMOOTH",
"48 45 LINE SMOOTH",
"48 35 OFFCURVE",
"55 27 OFFCURVE",
"65 27 CURVE SMOOTH",
"378 27 LINE SMOOTH",
"388 27 OFFCURVE",
"395 35 OFFCURVE",
"395 45 CURVE SMOOTH",
"395 307 LINE",
"395 307 OFFCURVE",
"349 307 OFFCURVE",
"349 307 CURVE SMOOTH",
"349 307 OFFCURVE",
"349 88 OFFCURVE",
"349 88 CURVE",
"349 80 OFFCURVE",
"345 74 OFFCURVE",
"336 74 CURVE SMOOTH",
"336 74 OFFCURVE",
"108 74 OFFCURVE",
"108 74 CURVE SMOOTH",
"99 74 OFFCURVE",
"94 79 OFFCURVE",
"94 88 CURVE SMOOTH",
"94 88 OFFCURVE",
"94 413 OFFCURVE",
"94 413 CURVE SMOOTH",
"94 422 OFFCURVE",
"99 428 OFFCURVE",
"108 428 CURVE SMOOTH",
"108 428 OFFCURVE",
"236 428 OFFCURVE",
"236 428 CURVE SMOOTH",
"236 428 OFFCURVE",
"236 474 OFFCURVE",
"236 474 CURVE SMOOTH"
);
},
{
closed = 1;
nodes = (
"199 251 LINE",
"270 181 LINE",
"433 345 LINE",
"363 415 LINE"
);
},
{
closed = 1;
nodes = (
"380 431 LINE",
"450 361 LINE",
"492 404 LINE",
"422 474 LINE"
);
},
{
closed = 1;
nodes = (
"245 168 LINE",
"128 114 LINE",
"183 231 LINE"
);
}
